<svg id="visual" viewBox="0 0 960 300" width="960" height="300" xmlns="http://www.w3.org/2000/svg" xmlns:xlink="http://www.w3.org/1999/xlink" version="1.1"><rect x="0" y="0" width="960" height="300" fill="#28acee"></rect><path d="M0 117L17.8 115.5C35.7 114 71.3 111 106.8 112C142.3 113 177.7 118 213.2 117.7C248.7 117.3 284.3 111.7 320 110.8C355.7 110 391.3 114 426.8 114C462.3 114 497.7 110 533.2 108.5C568.7 107 604.3 108 640 109.8C675.7 111.7 711.3 114.3 746.8 115.7C782.3 117 817.7 117 853.2 115.8C888.7 114.7 924.3 112.3 942.2 111.2L960 110L960 0L942.2 0C924.3 0 888.7 0 853.2 0C817.7 0 782.3 0 746.8 0C711.3 0 675.7 0 640 0C604.3 0 568.7 0 533.2 0C497.7 0 462.3 0 426.8 0C391.3 0 355.7 0 320 0C284.3 0 248.7 0 213.2 0C177.7 0 142.3 0 106.8 0C71.3 0 35.7 0 17.8 0L0 0Z" fill="#28acee"></path><path d="M0 102L17.8 100.2C35.7 98.3 71.3 94.7 106.8 92.8C142.3 91 177.7 91 213.2 92.5C248.7 94 284.3 97 320 98.7C355.7 100.3 391.3 100.7 426.8 99.7C462.3 98.7 497.7 96.3 533.2 96.2C568.7 96 604.3 98 640 97C675.7 96 711.3 92 746.8 91.2C782.3 90.3 817.7 92.7 853.2 94.2C888.7 95.7 924.3 96.3 942.2 96.7L960 97L960 0L942.2 0C924.3 0 888.7 0 853.2 0C817.7 0 782.3 0 746.8 0C711.3 0 675.7 0 640 0C604.3 0 568.7 0 533.2 0C497.7 0 462.3 0 426.8 0C391.3 0 355.7 0 320 0C284.3 0 248.7 0 213.2 0C177.7 0 142.3 0 106.8 0C71.3 0 35.7 0 17.8 0L0 0Z" fill="#3793d7"></path><path d="M0 73L17.8 75.2C35.7 77.3 71.3 81.7 106.8 82.5C142.3 83.3 177.7 80.7 213.2 78.7C248.7 76.7 284.3 75.3 320 74.8C355.7 74.3 391.3 74.7 426.8 76.5C462.3 78.3 497.7 81.7 533.2 81.8C568.7 82 604.3 79 640 78C675.7 77 711.3 78 746.8 79.5C782.3 81 817.7 83 853.2 84.5C888.7 86 924.3 87 942.2 87.5L960 88L960 0L942.2 0C924.3 0 888.7 0 853.2 0C817.7 0 782.3 0 746.8 0C711.3 0 675.7 0 640 0C604.3 0 568.7 0 533.2 0C497.7 0 462.3 0 426.8 0C391.3 0 355.7 0 320 0C284.3 0 248.7 0 213.2 0C177.7 0 142.3 0 106.8 0C71.3 0 35.7 0 17.8 0L0 0Z" fill="#407abd"></path><path d="M0 64L17.8 63.3C35.7 62.7 71.3 61.3 106.8 60.2C142.3 59 177.7 58 213.2 59.8C248.7 61.7 284.3 66.3 320 69C355.7 71.7 391.3 72.3 426.8 71.2C462.3 70 497.7 67 533.2 66.3C568.7 65.7 604.3 67.3 640 68.8C675.7 70.3 711.3 71.7 746.8 71.8C782.3 72 817.7 71 853.2 70.5C888.7 70 924.3 70 942.2 70L960 70L960 0L942.2 0C924.3 0 888.7 0 853.2 0C817.7 0 782.3 0 746.8 0C711.3 0 675.7 0 640 0C604.3 0 568.7 0 533.2 0C497.7 0 462.3 0 426.8 0C391.3 0 355.7 0 320 0C284.3 0 248.7 0 213.2 0C177.7 0 142.3 0 106.8 0C71.3 0 35.7 0 17.8 0L0 0Z" fill="#4462a3"></path><path d="M0 54L17.8 52C35.7 50 71.3 46 106.8 44.3C142.3 42.7 177.7 43.3 213.2 44.8C248.7 46.3 284.3 48.7 320 50.8C355.7 53 391.3 55 426.8 55C462.3 55 497.7 53 533.2 53C568.7 53 604.3 55 640 54.5C675.7 54 711.3 51 746.8 49.2C782.3 47.3 817.7 46.7 853.2 47.7C888.7 48.7 924.3 51.3 942.2 52.7L960 54L960 0L942.2 0C924.3 0 888.7 0 853.2 0C817.7 0 782.3 0 746.8 0C711.3 0 675.7 0 640 0C604.3 0 568.7 0 533.2 0C497.7 0 462.3 0 426.8 0C391.3 0 355.7 0 320 0C284.3 0 248.7 0 213.2 0C177.7 0 142.3 0 106.8 0C71.3 0 35.7 0 17.8 0L0 0Z" fill="#444b88"></path><path d="M0 35L17.8 35.8C35.7 36.7 71.3 38.3 106.8 37.3C142.3 36.3 177.7 32.7 213.2 30.7C248.7 28.7 284.3 28.3 320 28.8C355.7 29.3 391.3 30.7 426.8 31.8C462.3 33 497.7 34 533.2 33.3C568.7 32.7 604.3 30.3 640 30C675.7 29.7 711.3 31.3 746.8 32.3C782.3 33.3 817.7 33.7 853.2 32.8C888.7 32 924.3 30 942.2 29L960 28L960 0L942.2 0C924.3 0 888.7 0 853.2 0C817.7 0 782.3 0 746.8 0C711.3 0 675.7 0 640 0C604.3 0 568.7 0 533.2 0C497.7 0 462.3 0 426.8 0C391.3 0 355.7 0 320 0C284.3 0 248.7 0 213.2 0C177.7 0 142.3 0 106.8 0C71.3 0 35.7 0 17.8 0L0 0Z" fill="#40356c"></path><path d="M0 23L17.8 22.7C35.7 22.3 71.3 21.7 106.8 20C142.3 18.3 177.7 15.7 213.2 15.5C248.7 15.3 284.3 17.7 320 19C355.7 20.3 391.3 20.7 426.8 20.5C462.3 20.3 497.7 19.7 533.2 18.5C568.7 17.3 604.3 15.7 640 15.7C675.7 15.7 711.3 17.3 746.8 18C782.3 18.7 817.7 18.3 853.2 18C888.7 17.7 924.3 17.3 942.2 17.2L960 17L960 0L942.2 0C924.3 0 888.7 0 853.2 0C817.7 0 782.3 0 746.8 0C711.3 0 675.7 0 640 0C604.3 0 568.7 0 533.2 0C497.7 0 462.3 0 426.8 0C391.3 0 355.7 0 320 0C284.3 0 248.7 0 213.2 0C177.7 0 142.3 0 106.8 0C71.3 0 35.7 0 17.8 0L0 0Z" fill="#391f51"></path></svg>