<svg id="visual" viewBox="0 0 960 300" width="960" height="300" xmlns="http://www.w3.org/2000/svg" xmlns:xlink="http://www.w3.org/1999/xlink" version="1.1"><rect x="0" y="0" width="960" height="300" fill="#391F51"></rect><path d="M0 179L17.8 181.2C35.7 183.3 71.3 187.7 106.8 190.8C142.3 194 177.7 196 213.2 193.3C248.7 190.7 284.3 183.3 320 180.2C355.7 177 391.3 178 426.8 181.5C462.3 185 497.7 191 533.2 194C568.7 197 604.3 197 640 194.8C675.7 192.7 711.3 188.3 746.8 185.3C782.3 182.3 817.7 180.7 853.2 179.2C888.7 177.7 924.3 176.3 942.2 175.7L960 175L960 0L942.2 0C924.3 0 888.7 0 853.2 0C817.7 0 782.3 0 746.8 0C711.3 0 675.7 0 640 0C604.3 0 568.7 0 533.2 0C497.7 0 462.3 0 426.8 0C391.3 0 355.7 0 320 0C284.3 0 248.7 0 213.2 0C177.7 0 142.3 0 106.8 0C71.3 0 35.7 0 17.8 0L0 0Z" fill="#391f51"></path><path d="M0 153L17.8 154.2C35.7 155.3 71.3 157.7 106.8 160.8C142.3 164 177.7 168 213.2 167.2C248.7 166.3 284.3 160.7 320 160.5C355.7 160.3 391.3 165.7 426.8 166.7C462.3 167.7 497.7 164.3 533.2 163.5C568.7 162.7 604.3 164.3 640 165.7C675.7 167 711.3 168 746.8 165.8C782.3 163.7 817.7 158.3 853.2 156.8C888.7 155.3 924.3 157.7 942.2 158.8L960 160L960 0L942.2 0C924.3 0 888.7 0 853.2 0C817.7 0 782.3 0 746.8 0C711.3 0 675.7 0 640 0C604.3 0 568.7 0 533.2 0C497.7 0 462.3 0 426.8 0C391.3 0 355.7 0 320 0C284.3 0 248.7 0 213.2 0C177.7 0 142.3 0 106.8 0C71.3 0 35.7 0 17.8 0L0 0Z" fill="#3f3168"></path><path d="M0 142L17.8 143.3C35.7 144.7 71.3 147.3 106.8 148.7C142.3 150 177.7 150 213.2 147.3C248.7 144.7 284.3 139.3 320 137.8C355.7 136.3 391.3 138.7 426.8 137.3C462.3 136 497.7 131 533.2 129.7C568.7 128.3 604.3 130.7 640 133.8C675.7 137 711.3 141 746.8 142.3C782.3 143.7 817.7 142.3 853.2 141.3C888.7 140.3 924.3 139.7 942.2 139.3L960 139L960 0L942.2 0C924.3 0 888.7 0 853.2 0C817.7 0 782.3 0 746.8 0C711.3 0 675.7 0 640 0C604.3 0 568.7 0 533.2 0C497.7 0 462.3 0 426.8 0C391.3 0 355.7 0 320 0C284.3 0 248.7 0 213.2 0C177.7 0 142.3 0 106.8 0C71.3 0 35.7 0 17.8 0L0 0Z" fill="#434480"></path><path d="M0 114L17.8 114.3C35.7 114.7 71.3 115.3 106.8 113.8C142.3 112.3 177.7 108.7 213.2 109.3C248.7 110 284.3 115 320 116.2C355.7 117.3 391.3 114.7 426.8 114.2C462.3 113.7 497.7 115.3 533.2 116.5C568.7 117.7 604.3 118.3 640 118.8C675.7 119.3 711.3 119.7 746.8 117.3C782.3 115 817.7 110 853.2 110.3C888.7 110.7 924.3 116.3 942.2 119.2L960 122L960 0L942.2 0C924.3 0 888.7 0 853.2 0C817.7 0 782.3 0 746.8 0C711.3 0 675.7 0 640 0C604.3 0 568.7 0 533.2 0C497.7 0 462.3 0 426.8 0C391.3 0 355.7 0 320 0C284.3 0 248.7 0 213.2 0C177.7 0 142.3 0 106.8 0C71.3 0 35.7 0 17.8 0L0 0Z" fill="#445897"></path><path d="M0 91L17.8 90.3C35.7 89.7 71.3 88.3 106.8 88.5C142.3 88.7 177.7 90.3 213.2 90C248.7 89.7 284.3 87.3 320 88.3C355.7 89.3 391.3 93.7 426.8 96.5C462.3 99.3 497.7 100.7 533.2 99.2C568.7 97.7 604.3 93.3 640 93.3C675.7 93.3 711.3 97.7 746.8 98.5C782.3 99.3 817.7 96.7 853.2 95.5C888.7 94.3 924.3 94.7 942.2 94.8L960 95L960 0L942.2 0C924.3 0 888.7 0 853.2 0C817.7 0 782.3 0 746.8 0C711.3 0 675.7 0 640 0C604.3 0 568.7 0 533.2 0C497.7 0 462.3 0 426.8 0C391.3 0 355.7 0 320 0C284.3 0 248.7 0 213.2 0C177.7 0 142.3 0 106.8 0C71.3 0 35.7 0 17.8 0L0 0Z" fill="#436cae"></path><path d="M0 74L17.8 72C35.7 70 71.3 66 106.8 67.2C142.3 68.3 177.7 74.7 213.2 77C248.7 79.3 284.3 77.7 320 77C355.7 76.3 391.3 76.7 426.8 77.3C462.3 78 497.7 79 533.2 77.8C568.7 76.7 604.3 73.3 640 70.7C675.7 68 711.3 66 746.8 64.8C782.3 63.7 817.7 63.3 853.2 64.3C888.7 65.3 924.3 67.7 942.2 68.8L960 70L960 0L942.2 0C924.3 0 888.7 0 853.2 0C817.7 0 782.3 0 746.8 0C711.3 0 675.7 0 640 0C604.3 0 568.7 0 533.2 0C497.7 0 462.3 0 426.8 0C391.3 0 355.7 0 320 0C284.3 0 248.7 0 213.2 0C177.7 0 142.3 0 106.8 0C71.3 0 35.7 0 17.8 0L0 0Z" fill="#3e81c5"></path><path d="M0 44L17.8 43.3C35.7 42.7 71.3 41.3 106.8 42.7C142.3 44 177.7 48 213.2 49C248.7 50 284.3 48 320 48.5C355.7 49 391.3 52 426.8 53.3C462.3 54.7 497.7 54.3 533.2 53.2C568.7 52 604.3 50 640 50.5C675.7 51 711.3 54 746.8 52.8C782.3 51.7 817.7 46.3 853.2 45.8C888.7 45.3 924.3 49.7 942.2 51.8L960 54L960 0L942.2 0C924.3 0 888.7 0 853.2 0C817.7 0 782.3 0 746.8 0C711.3 0 675.7 0 640 0C604.3 0 568.7 0 533.2 0C497.7 0 462.3 0 426.8 0C391.3 0 355.7 0 320 0C284.3 0 248.7 0 213.2 0C177.7 0 142.3 0 106.8 0C71.3 0 35.7 0 17.8 0L0 0Z" fill="#3596da"></path><path d="M0 34L17.8 32.7C35.7 31.3 71.3 28.7 106.8 28.3C142.3 28 177.7 30 213.2 29.7C248.7 29.3 284.3 26.7 320 26.3C355.7 26 391.3 28 426.8 27.5C462.3 27 497.7 24 533.2 23C568.7 22 604.3 23 640 23.3C675.7 23.7 711.3 23.3 746.8 22.3C782.3 21.3 817.7 19.7 853.2 19.7C888.7 19.7 924.3 21.3 942.2 22.2L960 23L960 0L942.2 0C924.3 0 888.7 0 853.2 0C817.7 0 782.3 0 746.8 0C711.3 0 675.7 0 640 0C604.3 0 568.7 0 533.2 0C497.7 0 462.3 0 426.8 0C391.3 0 355.7 0 320 0C284.3 0 248.7 0 213.2 0C177.7 0 142.3 0 106.8 0C71.3 0 35.7 0 17.8 0L0 0Z" fill="#28acee"></path></svg>